<svg width="43" height="30" viewBox="0 0 43 30" fill="none" xmlns="http://www.w3.org/2000/svg">
<path d="M3.37074e-06 19.9139C0.00608448 17.5572 0.778385 16.8199 2.9033 17.0119C8.7872 17.5437 14.3471 19.1592 19.3079 22.8645C20.6384 23.8581 22.0075 23.8316 23.3154 22.8158C28.2845 18.9571 33.95 17.5472 39.8621 16.9898C41.6495 16.8212 42.3319 17.4286 42.5647 19.3734C42.8136 21.4541 42.1225 22.7619 40.4368 22.9688C38.5099 23.2051 36.5774 23.378 34.6814 23.8356C30.8134 24.7684 27.1856 26.373 23.9074 28.8448C22.1113 30.1991 20.4186 30.1321 18.6356 28.8578C13.8571 25.4427 8.65038 23.4245 2.95108 23.0109C0.69325 22.8475 -0.00564337 22.0668 3.37074e-06 19.9139Z" fill="#2079F5"/>
<path d="M6.84863 11.4114C11.0581 11.6677 15.0963 12.6762 18.6451 15.2992C20.4851 16.6591 22.0466 16.6118 23.8588 15.274C27.7967 12.3664 32.2577 11.4344 36.9145 11.4205C37.9491 11.4175 38.8157 11.8502 39.3999 12.8222C40.1596 14.0865 39.641 15.3296 38.2797 15.4208C32.6625 15.7971 27.5639 17.9539 22.7611 21.0374C21.4611 21.8721 20.4586 21.8434 19.2085 20.9466C14.7115 17.7201 9.82185 15.7458 4.40055 15.6203C3.58872 15.6016 2.94282 15.264 2.87593 14.219C2.80513 13.1102 3.03534 12.1335 4.09649 11.7481C4.97956 11.4274 5.91127 11.3727 6.84863 11.4114Z" fill="#2079F5"/>
<path d="M21.3069 9.1112C23.8222 9.1112 25.8612 7.07159 25.8612 4.5556C25.8612 2.03961 23.8222 0 21.3069 0C18.7916 0 16.7526 2.03961 16.7526 4.5556C16.7526 7.07159 18.7916 9.1112 21.3069 9.1112Z" fill="#2079F5"/>
</svg>
